<?xml version="1.0" encoding="UTF-8"?>
<svg id="Layer_1" data-name="Layer 1" xmlns="http://www.w3.org/2000/svg" viewBox="0 0 55.2 38.4">
  <path d="m2.87,38.4h49.46c1.59-.09,2.87-1.42,2.87-3.03V3.03c0-1.66-1.35-3.02-3.01-3.03H3.01C1.35,0,0,1.37,0,3.03v32.33c0,1.62,1.28,2.95,2.87,3.04h0Z" style="fill: #fefefe;"/>
  <polygon points="23.74 23.03 23.74 38.4 31.42 38.4 31.42 23.03 55.2 23.03 55.2 15.35 31.42 15.35 31.42 0 23.74 0 23.74 15.35 0 15.35 0 23.03 23.74 23.03" style="fill: #c8102e;"/>
  <path d="m33.98,12.43V0h18.23c1.26.02,2.34.81,2.78,1.92l-21.01,10.51h0Z" style="fill: #012169;"/>
  <path d="m33.98,25.97v12.43h18.35c1.21-.07,2.23-.85,2.66-1.92l-21.01-10.51h0Z" style="fill: #012169;"/>
  <path d="m21.18,25.97v12.43H2.87c-1.21-.07-2.24-.85-2.66-1.94l20.97-10.49h0Z" style="fill: #012169;"/>
  <path d="m21.18,12.43V0H2.99C1.73.02.64.82.21,1.94l20.97,10.49h0Z" style="fill: #012169;"/>
  <polygon points="0 12.8 7.65 12.8 0 8.97 0 12.8" style="fill: #012169;"/>
  <polygon points="55.2 12.8 47.51 12.8 55.2 8.95 55.2 12.8" style="fill: #012169;"/>
  <polygon points="55.2 25.6 47.51 25.6 55.2 29.45 55.2 25.6" style="fill: #012169;"/>
  <polygon points="0 25.6 7.65 25.6 0 29.43 0 25.6" style="fill: #012169;"/>
  <polygon points="55.2 3.25 36.15 12.8 40.41 12.8 55.2 5.4 55.2 3.25" style="fill: #c8102e;"/>
  <polygon points="19.01 25.6 14.75 25.6 0 32.98 0 35.13 19.05 25.6 19.01 25.6" style="fill: #c8102e;"/>
  <polygon points="10.52 12.81 14.78 12.81 0 5.41 0 7.55 10.52 12.81" style="fill: #c8102e;"/>
  <polygon points="44.63 25.59 40.37 25.59 55.2 33.02 55.2 30.88 44.63 25.59" style="fill: #c8102e;"/>
</svg>